<?xml version="1.0" encoding="UTF-8" standalone="no"?>
<!-- Created with Inkscape (http://www.inkscape.org/) -->

<svg
   width="50mm"
   height="40mm"
   viewBox="0 0 50 40"
   version="1.1"
   id="svg1033"
   inkscape:version="1.1.2 (b8e25be8, 2022-02-05)"
   sodipodi:docname="logo.svg"
   xmlns:inkscape="http://www.inkscape.org/namespaces/inkscape"
   xmlns:sodipodi="http://sodipodi.sourceforge.net/DTD/sodipodi-0.dtd"
   xmlns="http://www.w3.org/2000/svg"
   xmlns:svg="http://www.w3.org/2000/svg">
  <sodipodi:namedview
     id="namedview1035"
     pagecolor="#ffffff"
     bordercolor="#666666"
     borderopacity="1.0"
     inkscape:pageshadow="2"
     inkscape:pageopacity="0.0"
     inkscape:pagecheckerboard="0"
     inkscape:document-units="mm"
     showgrid="false"
     inkscape:zoom="0.64052329"
     inkscape:cx="230.28046"
     inkscape:cy="542.52516"
     inkscape:window-width="1312"
     inkscape:window-height="969"
     inkscape:window-x="0"
     inkscape:window-y="38"
     inkscape:window-maximized="0"
     inkscape:current-layer="layer1"
     width="20mm" />
  <defs
     id="defs1030">
    <linearGradient
       id="paint0_linear_1148_10116"
       x1="0"
       y1="0"
       x2="189.40601"
       y2="49.883099"
       gradientUnits="userSpaceOnUse"
       gradientTransform="matrix(0.26458333,0,0,0.26458333,2.2054104,2.8131101)">
      <stop
         stop-color="#6684E1"
         id="stop860" />
      <stop
         offset="1"
         stop-color="#7BCC98"
         id="stop862" />
    </linearGradient>
  </defs>
  <g
     inkscape:label="Layer 1"
     inkscape:groupmode="layer"
     id="layer1">
    <path
       fill-rule="evenodd"
       clip-rule="evenodd"
       d="m 28.60019,32.495921 c 0,-1.112573 0.901753,-2.014273 2.014061,-2.014273 h 2.332038 c 1.112573,0 2.014273,0.9017 2.014273,2.014273 v 2.332037 c 0,1.112309 -0.9017,2.014009 -2.014273,2.014009 h -2.332038 c -1.112308,0 -2.014061,-0.9017 -2.014061,-2.014009 z m 2.014061,-0.530225 c -0.292629,0 -0.52996,0.237331 -0.52996,0.530225 v 2.332037 c 0,0.292629 0.237331,0.529961 0.52996,0.529961 h 2.332038 c 0.292894,0 0.530225,-0.237332 0.530225,-0.529961 v -2.332037 c 0,-0.292894 -0.237331,-0.530225 -0.530225,-0.530225 z"
       fill="#ffcb5c"
       id="path824"
       style="stroke-width:0.264583" />
    <path
       fill-rule="evenodd"
       clip-rule="evenodd"
       d="m 18.00029,31.963579 c -0.93673,0 -1.69608,0.759619 -1.69608,1.696244 0,0.936625 0.75935,1.695979 1.69608,1.695979 0.93673,0 1.696089,-0.759354 1.696089,-1.695979 0,-0.936625 -0.759359,-1.696244 -1.696089,-1.696244 z m -3.18016,1.696244 c 0,-1.756304 1.42381,-3.180292 3.18016,-3.180292 1.756361,0 3.180163,1.423988 3.180163,3.180292 0,1.756304 -1.423802,3.180027 -3.180163,3.180027 -1.75635,0 -3.18016,-1.423723 -3.18016,-3.180027 z"
       fill="#5dc080"
       id="path826"
       style="stroke-width:0.264583" />
    <path
       fill-rule="evenodd"
       clip-rule="evenodd"
       d="m 22.2345,30.909215 c 0.289772,-0.289719 0.759619,-0.289719 1.049391,0 l 4.250848,4.250795 c 0.289799,0.289984 0.289799,0.759619 0,1.049602 -0.289771,0.289719 -0.759618,0.289719 -1.04939,0 L 22.2345,31.958552 c -0.289798,-0.289719 -0.289798,-0.759619 0,-1.049337 z"
       fill="#d1757a"
       id="path828"
       style="stroke-width:0.264583" />
    <path
       fill-rule="evenodd"
       clip-rule="evenodd"
       d="m 27.446422,30.909215 c -0.289772,-0.289719 -0.759619,-0.289719 -1.049391,0 l -4.250849,4.250795 c -0.289798,0.289984 -0.289798,0.759619 0,1.049602 0.289772,0.289719 0.759619,0.289719 1.049391,0 l 4.250849,-4.25106 c 0.289798,-0.289719 0.289798,-0.759619 0,-1.049337 z"
       fill="#d1757a"
       id="path830"
       style="stroke-width:0.264583" />
    <path
       fill-rule="evenodd"
       clip-rule="evenodd"
       d="m 15.95554,2.8131101 c -3.26189,0 -5.90616,2.497003 -5.90616,5.577205 V 16.1021 c 0,1.45796 -1.1819196,2.63988 -2.6398796,2.63988 v 0 c -2.87414,0 -5.20409,2.345478 -5.20409,5.238776 v 5.607659 c 0,2.893218 2.32996,5.23875 5.20409,5.23875 H 12.78147 c 0.74173,0 1.343,-0.605103 1.343,-1.352021 0,-0.746654 -0.60127,-1.351757 -1.343,-1.351757 H 7.4095004 c -1.3907,0 -2.51809,-1.135062 -2.51809,-2.534972 v -5.607659 c 0,-1.39999 1.12739,-2.534893 2.51809,-2.534893 H 14.63207 c 1.3907,0 2.51809,1.134903 2.51809,2.534893 v 1.484445 c 0,0.746681 0.60129,1.351968 1.343,1.351968 0.741706,0 1.342998,-0.605287 1.342998,-1.351968 v -1.484445 c 0,-2.893298 -2.329948,-5.238776 -5.204088,-5.238776 v 0 c -0.94409,0 -1.70942,-0.765334 -1.70942,-1.70942 V 8.3903151 c 0,-1.581732 1.35787,-2.863955 3.03289,-2.863955 h 15.536863 c 1.675077,0 3.032919,1.282223 3.032919,2.863955 v 0.670349 c 0,0.749247 0.643202,1.3566239 1.436688,1.3566239 0.793485,0 1.436687,-0.6073769 1.436687,-1.3566239 v -0.670349 c 0,-3.080202 -2.644246,-5.577205 -5.906294,-5.577205 z M 31.798262,16.744931 c 0,-1.39999 1.127389,-2.53492 2.518039,-2.53492 h 7.843044 c 1.390914,0 2.518304,1.13493 2.518304,2.53492 v 12.843484 c 0,1.39991 -1.12739,2.534972 -2.518304,2.534972 h -5.036079 c -0.741627,0 -1.343025,0.605103 -1.343025,1.351757 0,0.746918 0.601398,1.352021 1.343025,1.352021 h 5.036079 c 2.874169,0 5.204086,-2.345532 5.204086,-5.23875 V 16.744931 c 0,-2.893324 -2.329917,-5.238803 -5.204086,-5.238803 h -7.843044 c -2.874168,0 -5.204089,2.345479 -5.204089,5.238803 v 2.103279 c 0,0.746654 0.601398,1.351941 1.343025,1.351941 0.741627,0 1.343025,-0.605287 1.343025,-1.351941 z"
       fill="url(#paint0_linear_1148_10116)"
       id="path832"
       style="fill:url(#paint0_linear_1148_10116);stroke-width:0.264583" />
  </g>
</svg>
